<svg version="1.1" xmlns="http://www.w3.org/2000/svg" x="0" y="0" width="720.5" height="120.3" viewBox="0 0 720.5 120.3" enable-background="new 0 0 720.5 120.25" xml:space="preserve"><path fill="#5C3DCC" d="M387.1 2.6c9.7 0 18.8 7.2 18.8 19.3 0 12.2-9.1 19.3-18.8 19.3s-18.8-7.2-18.8-19.3C368.2 9.7 377.3 2.6 387.1 2.6M387.1 35.2c6.3 0 12.4-4.4 12.4-13.4 0-8.9-6.2-13.4-12.4-13.4 -6.2 0-12.4 4.4-12.4 13.4C374.7 30.8 380.8 35.2 387.1 35.2"/><polygon fill="#5C3DCC" points="421.3 40.4 421.3 3.3 427.6 3.3 427.6 34.4 444.6 34.4 444.6 40.4 "/><polygon fill="#5C3DCC" points="459.1 40.4 459.1 3.3 465.4 3.3 465.4 34.4 482.3 34.4 482.3 40.4 "/><path fill="#5C3DCC" d="M521 31.1h-15.7l-3.4 9.3h-6.6l14.4-37h7.3l14.4 37h-6.8L521 31.1zM507.6 25.3h11.3l-5.6-15.1L507.6 25.3zM560.4 3.3c7.1 0 11.3 4.2 11.3 10 0 3.9-2.3 6.8-5.5 8 3.9 1 6.6 4.4 6.6 8.8 0 6-4.6 10.2-11.5 10.2h-13.7V3.3H560.4zM559.5 19c3.7 0 5.9-2.1 5.9-5.2 0-3.1-2.2-5.2-6-5.2h-5.5v10.3H559.5zM560.2 35c3.8 0 6.2-2 6.2-5.3 0-3.2-2.1-5.4-6-5.4h-6.6v10.8H560.2zM607.1 2.6c9.7 0 18.9 7.2 18.9 19.3 0 12.2-9.1 19.3-18.9 19.3 -9.7 0-18.8-7.2-18.8-19.3C588.4 9.7 597.4 2.6 607.1 2.6M607.1 35.2c6.3 0 12.4-4.4 12.4-13.4 0-8.9-6.2-13.4-12.4-13.4 -6.2 0-12.4 4.4-12.4 13.4C594.8 30.8 600.9 35.2 607.1 35.2M708.5 31.1h-15.7l-3.4 9.3h-6.6l14.4-37h7.3l14.4 37h-6.8L708.5 31.1zM695 25.3h11.3l-5.6-15.1L695 25.3zM348.9 27.3c-2 5.2-6.7 7.9-11.5 7.9 -6.2 0-12.4-4.4-12.4-13.4 0-8.9 6.2-13.4 12.4-13.4 4.8 0 9.6 2.6 11.5 7.9h6.7c-2.3-8.8-10-13.8-18.2-13.8 -9.7 0-18.8 7.1-18.8 19.3 0 12.2 9.1 19.3 18.8 19.3 8.1 0 15.9-5 18.2-13.8H348.9zM654.5 26h-5.4v14.6h-6.3V3.6h14.7c7.1 0 11.6 5 11.6 11.2 0 5.3-2.9 9.3-8.1 10.5l8.9 15.2h-7.1L654.5 26zM656.7 20.5c3.9 0 6.1-2.2 6.1-5.6 0-3.5-2.5-5.7-6.4-5.7h-7.3v11.3H656.7zM206.6 97.6c-20.7 0-37.5-16.8-37.5-37.5 0-20.7 16.8-37.5 37.5-37.5 20.7 0 37.5 16.8 37.5 37.5C244.2 80.9 227.4 97.6 206.6 97.6M206.6 1.8c-32.2 0-58.3 26.1-58.3 58.3 0 32.2 26.1 58.3 58.3 58.3 32.2 0 58.3-26.1 58.3-58.3C265 27.9 238.8 1.8 206.6 1.8"/><polygon fill="#5C3DCC" points="114.5 30.2 99.8 45 116.2 60.5 99.9 75.8 114.6 90.5 144.7 60.5 "/><path fill="#8B8B89" d="M60.3 119.1c-14.5 0-27.7-5-39.2-15C8.3 92.8 1.8 78 1.8 60.1c0-16 5.9-29.8 17.5-41.2C30.8 7.6 44.9 1.8 61.1 1.8c16.1 0 30 5.8 41.5 17.3L87.3 34.3C79.9 26.9 71.3 23.3 61.1 23.3c-10.5 0-19.2 3.6-26.7 10.9C26.9 41.5 23.3 50 23.3 60.1c0 11.6 3.9 20.7 12 27.8 7.5 6.5 15.7 9.7 25.1 9.7 10.7 0 19.5-3.6 27-10.9l15 15.4C90.8 113.4 76.7 119.1 60.3 119.1"/></svg>