<?xml version="1.0" encoding="UTF-8" standalone="no"?>
<!DOCTYPE svg PUBLIC "-//W3C//DTD SVG 1.1//EN" "http://www.w3.org/Graphics/SVG/1.1/DTD/svg11.dtd">
<svg width="100%" height="100%" viewBox="0 0 400 400" version="1.1" xmlns="http://www.w3.org/2000/svg" xmlns:xlink="http://www.w3.org/1999/xlink" xml:space="preserve" xmlns:serif="http://www.serif.com/" style="fill-rule:evenodd;clip-rule:evenodd;stroke-linejoin:round;stroke-miterlimit:2;">
    <g id="twitter_Profile_400px" transform="matrix(3.125,0,0,3.125,0,0)">
        <rect x="0" y="0" width="128" height="128" style="fill:none;"/>
        <g transform="matrix(0.115958,0,0,0.115958,1.52927,3.87053)">
            <g transform="matrix(5.46155,0,0,5.46155,-590.458,-737.63)">
                <path d="M270.618,215.315C270.618,215.315 268.524,214.114 265.094,212.146C264.713,211.928 264.226,212.06 264.008,212.441C263.789,212.822 263.921,213.309 264.302,213.527C267.731,215.495 269.826,216.696 269.826,216.696C270.207,216.915 270.694,216.783 270.913,216.402C271.131,216.021 270.999,215.534 270.618,215.315ZM148.388,212.132C146.103,213.451 144.217,214.54 142.872,215.316C142.492,215.536 142.361,216.023 142.581,216.404C142.801,216.784 143.288,216.915 143.668,216.695C145.013,215.919 146.899,214.83 149.184,213.511C149.564,213.291 149.695,212.804 149.475,212.423C149.255,212.043 148.768,211.912 148.388,212.132ZM259.57,208.977C257.857,207.995 256.002,206.931 254.046,205.808C253.665,205.59 253.178,205.722 252.959,206.103C252.741,206.484 252.873,206.971 253.254,207.189C255.21,208.312 257.065,209.376 258.778,210.358C259.159,210.577 259.646,210.445 259.865,210.064C260.083,209.683 259.951,209.196 259.57,208.977ZM159.418,205.764C157.489,206.877 155.639,207.946 153.903,208.948C153.522,209.167 153.392,209.655 153.611,210.035C153.831,210.416 154.318,210.546 154.699,210.327C156.435,209.324 158.285,208.256 160.214,207.142C160.595,206.923 160.725,206.435 160.506,206.055C160.286,205.674 159.799,205.544 159.418,205.764ZM248.522,202.639C246.718,201.605 244.868,200.543 242.998,199.471C242.617,199.252 242.13,199.384 241.911,199.765C241.693,200.146 241.825,200.633 242.206,200.852C244.076,201.924 245.926,202.986 247.73,204.02C248.111,204.239 248.598,204.107 248.816,203.726C249.035,203.345 248.903,202.858 248.522,202.639ZM170.449,199.395C168.589,200.468 166.743,201.534 164.933,202.579C164.553,202.799 164.422,203.286 164.642,203.667C164.862,204.047 165.349,204.178 165.729,203.958C167.539,202.913 169.386,201.847 171.245,200.774C171.625,200.554 171.756,200.067 171.536,199.686C171.316,199.306 170.829,199.175 170.449,199.395ZM237.474,196.302C235.618,195.237 233.769,194.176 231.95,193.133C231.569,192.914 231.082,193.046 230.863,193.427C230.645,193.808 230.777,194.295 231.158,194.514C232.976,195.557 234.826,196.618 236.682,197.683C237.063,197.901 237.55,197.769 237.768,197.388C237.987,197.007 237.855,196.52 237.474,196.302ZM181.479,193.027C179.668,194.072 177.821,195.138 175.964,196.211C175.583,196.431 175.453,196.918 175.672,197.298C175.892,197.679 176.379,197.809 176.76,197.59C178.617,196.517 180.464,195.451 182.275,194.405C182.656,194.186 182.786,193.699 182.566,193.318C182.347,192.938 181.859,192.807 181.479,193.027ZM226.426,189.964C224.502,188.86 222.649,187.797 220.902,186.795C220.521,186.576 220.034,186.708 219.815,187.089C219.597,187.47 219.729,187.957 220.11,188.176C221.856,189.178 223.709,190.241 225.634,191.345C226.015,191.563 226.502,191.431 226.72,191.05C226.939,190.669 226.807,190.182 226.426,189.964ZM192.509,186.658C190.77,187.662 188.92,188.73 186.994,189.842C186.614,190.062 186.483,190.549 186.703,190.93C186.922,191.31 187.41,191.441 187.79,191.221C189.716,190.109 191.566,189.041 193.306,188.037C193.686,187.817 193.817,187.33 193.597,186.95C193.377,186.569 192.89,186.439 192.509,186.658ZM215.378,183.626C213.156,182.351 211.273,181.271 209.854,180.457C209.473,180.238 208.986,180.37 208.767,180.751C208.549,181.132 208.681,181.619 209.062,181.838C210.481,182.652 212.364,183.732 214.586,185.007C214.967,185.225 215.454,185.094 215.672,184.712C215.891,184.331 215.759,183.844 215.378,183.626ZM203.54,180.29C202.156,181.089 200.274,182.176 198.025,183.474C197.644,183.694 197.514,184.181 197.733,184.561C197.953,184.942 198.44,185.072 198.821,184.853C201.07,183.554 202.952,182.468 204.336,181.669C204.716,181.449 204.847,180.962 204.627,180.581C204.408,180.201 203.92,180.07 203.54,180.29Z" style="fill:rgb(26,26,26);fill-opacity:0.9;"/>
            </g>
            <g transform="matrix(1.51313,0,0,1.51313,-467.179,-415.631)">
                <path d="M427.43,662.962L427.43,571.602L664.79,708.642L902.151,571.602L902.151,662.962L665.151,799.757L427.43,662.962Z" style="fill:url(#_Linear1);"/>
            </g>
            <g transform="matrix(22.3599,-12.9095,25.819,14.9066,-39935.6,-54211.7)">
                <ellipse cx="-1212.02" cy="2617.22" rx="3.467" ry="3.002" style="fill:url(#_Radial2);"/>
            </g>
        </g>
    </g>
    <defs>
        <linearGradient id="_Linear1" x1="0" y1="0" x2="1" y2="0" gradientUnits="userSpaceOnUse" gradientTransform="matrix(0,-170.986,395.176,-2.13038e-13,653.376,804.759)"><stop offset="0" style="stop-color:rgb(21,147,237);stop-opacity:1"/><stop offset="1" style="stop-color:rgb(21,180,237);stop-opacity:1"/></linearGradient>
        <radialGradient id="_Radial2" cx="0" cy="0" r="1" gradientUnits="userSpaceOnUse" gradientTransform="matrix(6.93368,0,0,6.00474,-1215.49,2617.22)"><stop offset="0" style="stop-color:rgb(21,147,237);stop-opacity:1"/><stop offset="1" style="stop-color:rgb(21,180,237);stop-opacity:1"/></radialGradient>
    </defs>
</svg>
