<svg width="1401.8" height="500" version="1.1" viewBox="0 0 1401.8 500" xmlns="http://www.w3.org/2000/svg">
<!-- Copyright © 2023 Igalia, S.L. All rights reserved. -->
   <defs>
      <linearGradient id="d" x1="25.133" x2="147.37" y1="142.28" y2="142.28" gradientTransform="matrix(2.893 0 0 2.893 .0067966 .048844)" gradientUnits="userSpaceOnUse">
         <stop stop-color="#ff0800" offset="0"/>
         <stop stop-color="#670164" offset="1"/>
      </linearGradient>
      <linearGradient id="c" x1="1765.1" x2="1887.3" y1="692.72" y2="692.72" gradientTransform="matrix(0 -2.893 2.893 0 -1593 5533.1)" gradientUnits="userSpaceOnUse">
         <stop stop-color="#f8fc83" offset="0"/>
         <stop stop-color="#ff8600" offset="1"/>
      </linearGradient>
      <linearGradient id="b" x1="1214.6" x2="1336.8" y1="2432.8" y2="2432.8" gradientTransform="matrix(-2.893 0 0 -2.893 3940.1 7126.1)" gradientUnits="userSpaceOnUse">
         <stop stop-color="#bfe7e5" offset="0"/>
         <stop stop-color="#0b4499" offset="1"/>
      </linearGradient>
      <linearGradient id="a" x1="-525.38" x2="-403.14" y1="1882.1" y2="1882.1" gradientTransform="matrix(0 2.893 -2.893 0 5533.1 1593)" gradientUnits="userSpaceOnUse">
         <stop stop-color="#eff711" offset="0"/>
         <stop stop-color="#93c016" offset="1"/>
      </linearGradient>
   </defs>
   <g>
      <path d="m248.08.048844c-66.847 0-121.39 26.832-159.11 58.313-.27841.23128-.53688.49131-.81369.7233-1.0103.85037-1.9979 1.6748-2.9833 2.5314-1.6678 1.4441-3.3705 2.8743-4.9724 4.3397-1.6532 1.5153-3.1254 3.0852-4.7012 4.6106-.9209.89124-1.9062 1.7251-2.8027 2.6219-.89133.89147-1.7363 1.8866-2.6217 2.8027-.56036.57963-1.16 1.1284-1.7178 1.7178-.89184.94056-1.825 1.8352-2.7124 2.8027-.07312.08-.10767.19107-.1807.27106-2.3384 2.5567-4.6662 5.2145-6.9612 7.956-.3934.47163-.78407.96983-1.1754 1.4465-1.9953 2.4205-3.9281 4.8557-5.8763 7.4136-1.9871 2.6084-3.9499 5.2978-5.8763 8.0461-.25117.36054-.4735.72212-.72325 1.0849-23.603 34.031-42.082 78.504-44.484 130.82-.076086 1.6599-.13747 3.2969-.1807 4.9724-.10981 3.0955-.1807 6.2574-.1807 9.4025 0 62.265 23.001 113.55 51.531 150.71 2.0892 2.7213 4.1868 5.3881 6.3287 7.956.23128.2784.49157.53697.72325.81368 1.0205 1.2129 2.0441 2.3482 3.0739 3.5258 1.2694 1.4573 2.5106 2.9325 3.7971 4.3397 1.5192 1.6575 3.0796 3.2108 4.6106 4.7916.88523.91484 1.7308 1.9114 2.6219 2.8027.8915.89119 1.887 1.736 2.8025 2.6219 1.4929 1.4459 2.9582 2.9035 4.5204 4.3396.63934.58642 1.3391 1.1346 1.989 1.7178 4.5916 4.1322 9.401 8.2314 14.556 12.205.54271.41589 1.0789.85243 1.6274 1.2657 35.993 27.29 85.097 49.427 144.11 50.808 2.864.0951 5.7716.1807 8.6792.1807 67.209-.003 122.01-27.14 159.75-58.856.18287-.15261.36011-.29872.54246-.45206 2.6128-2.2081 5.0582-4.4461 7.5038-6.6903.08-.073.19108-.10767.27105-.1807 1.5681-1.4424 3.0224-2.9781 4.5204-4.43.91535-.88523 1.9114-1.7312 2.8027-2.6217.89686-.89742 1.7305-1.8809 2.6217-2.8027 1.5261-1.576 3.0956-3.0479 4.6108-4.7012 3.559-3.8931 7.0676-8.1087 10.487-12.386 29.258-36.414 53.764-87.539 55.24-149.63.0951-2.8634.18071-5.7726.18071-8.6793 0-57.332-19.814-105.64-45.294-142.03-.24988-.35967-.47222-.72727-.7233-1.0849-4.1645-5.8857-8.4358-11.395-12.838-16.635-.15217-.18199-.29959-.36141-.45201-.54246-2.2084-2.6144-4.4461-5.1467-6.6903-7.5944-.0731-.08-.10767-.19108-.18071-.27106-1.4422-1.5688-2.9781-3.0215-4.4298-4.5204-.88644-.91578-1.7299-1.911-2.6219-2.8027-.89129-.89115-1.8874-1.7362-2.8027-2.6219-.58261-.56424-1.1245-1.1548-1.7178-1.7178-.91457-.8669-1.7747-1.7613-2.7122-2.6217-.10901-.10034-.25246-.17119-.36184-.27106-2.4415-2.2326-4.9098-4.4183-7.5038-6.5996-.17724-.15002-.36401-.30261-.54245-.45206-.14565-.12188-.30565-.23994-.45203-.36141-35.498-29.752-86.039-55.231-147.76-58.087-1.4477-.079974-2.8803-.12494-4.3396-.1807-.18069-.004337-.36139.004337-.54244 0-3.1015-.11198-6.2461-.1807-9.4025-.1807zm1.8986 114.73c28.549 20.883 54.274 43.688 72.416 61.839 18.341 18.341 41.509 44.431 62.653 73.412-21.109 28.945-44.238 55.001-62.563 73.322-18.25 18.245-44.22 41.209-72.961 62.201-28.772-20.974-54.661-43.859-72.905-62.114-18.263-18.256-41.307-44.301-62.381-73.14 21.052-28.688 44.125-54.531 62.381-72.778 18.343-18.343 44.409-41.533 73.322-62.742z" fill="#fff" stroke-width="4.323"/>
      <g stroke-width="2.893">
         <path d="m72.717 426.85c58.523 58.499 192.21-45.973 249.75-103.5 27.562 27.573 73.867 73.416 103.89 103.45-38.969 38.94-101.02 73.077-178.21 73.077-77.188 0-138.02-35.613-175.42-73.019z" fill="url(#d)"/>
         <path d="m426.35 426.8c58.525-58.517-46.407-192.67-103.94-250.2 27.562-27.573 73.855-73.427 103.87-103.46 38.995 38.989 73.135 101.04 73.135 178.23 0 77.179-35.65 138.01-73.066 175.43z" fill="url(#c)"/>
         <path d="m426.29 73.141c-58.525-58.525-192.15 46.858-249.67 104.39-27.567-27.565-73.936-74.313-103.96-104.33 38.957-38.966 101.02-73.103 178.21-73.103 77.185 0 138 35.624 175.41 73.04z" fill="url(#b)"/>
         <path d="m72.662 73.207c-58.517 58.511 46.427 192.65 103.96 250.19-27.582 27.57-73.873 73.424-103.9 103.45-38.96-38.969-72.649-100.59-72.649-177.77 0-77.185 35.176-138.47 72.594-175.87z" fill="url(#a)"/>
      </g>
      <g stroke-width="2.893" style="mix-blend-mode:multiply">
         <path d="m426.35 426.8c-58.505 58.523-192.21-45.842-249.74-103.4-27.582 27.573-73.873 73.427-103.9 103.45 38.98 38.966 101.04 73.106 178.23 73.106 77.168-.003 138.01-35.752 175.41-73.164z" fill="url(#d)"/>
         <path d="m426.29 73.141c58.523 58.52-46.282 192.68-103.82 250.21 27.591 27.596 73.867 73.416 103.89 103.45 38.972-38.995 73.112-101.05 73.112-178.22 0-77.182-35.757-138.02-73.164-175.44z" fill="url(#c)"/>
         <path d="m72.662 73.207c58.523-58.505 192.22 45.845 249.74 103.39 27.57-27.579 73.858-73.427 103.89-103.46-38.969-38.963-101.02-73.092-178.22-73.092-77.188 0-137.99 35.755-175.41 73.158z" fill="url(#b)"/>
         <path d="m72.717 426.85c-58.523-58.525 46.355-191.8 103.9-249.32-27.576-27.591-73.931-74.304-103.96-104.33-38.972 38.977-72.655 101.49-72.655 178.67 0 77.159 35.306 137.57 72.71 174.97z" fill="url(#a)"/>
      </g>
   </g>
   <g fill="#3f3f3f" stroke-width="4.323">
      <path d="m675.81 138.64c0 21.628-6.2382 25.29-26.016 25.29-20.176 0-26.397-3.6616-26.397-25.29 0-19.423 6.2209-22.35 26.397-22.35 19.774 0 26.016 2.9267 26.016 22.35zm-3.6789 189.42c0 28.856 13.92 44.035 13.92 44.035s-18.472 14.569-32.704 14.569c-18.706 0-26.665-33.603-26.665-47.497v-145.19h45.453c-.004-.004-.004 105.24-.004 134.08z"/>
      <path d="m1218 138.64c0 21.628-6.2381 25.29-26.029 25.29-20.167 0-26.388-3.6616-26.388-25.29 0-19.423 6.2209-22.35 26.388-22.35 19.791 0 26.029 2.9267 26.029 22.35zm-3.6789 189.42c0 28.856 13.903 44.035 13.903 44.035s-18.464 14.569-32.691 14.569c-18.697 0-26.669-33.603-26.669-47.497v-145.19h45.457z"/>
      <path d="m776.23 384.92c-51.315 0-78.442-21.265-78.442-97.143 0-76.224 28.225-99.313 89.794-99.313 19.808 0 43.862 2.8705 63.142 7.9933 19.838 5.2784 18.226 21.706 18.226 21.706v148.04c0 72.926-40.671 89.081-99.681 89.081-14.322 0-31.874-1.941-46.624-5.4989-19.255-4.6559-12.312-32.233-12.312-32.233l2.4814-9.9171c17.223 5.4946 38.475 9.1562 56.074 9.1562 34.468 0 54.609-9.5453 54.609-43.978-10.246 6.2209-26.016 12.109-47.268 12.109zm47.273-144.23s.98998-9.2773-11.11-11.923c-8.2484-1.8027-17.111-2.9181-24.806-2.9181-32.237 0-42.867 8.4213-42.867 61.565 0 46.546 9.8825 58.283 41.765 58.283 20.158 0 37.018-6.2468 37.018-17.595z"/>
      <path d="m1133.9 143.91v184.21c0 17.949 4.0377 30.421 14.292 43.983 0 0-35.025 28.731-48.444 5.5551-7.2411-12.476-11.305-27.374-11.305-47.709v-214.04h18.762c28.735.004 26.695 28.005 26.695 28.005z"/>
      <path d="m1401.8 355.01s0 16.484-19.017 22.035c-20.828 6.0739-45.647 8.6115-65.282 8.6115-58.992 0-78.805-13.548-78.805-62.295 0-52.784 29.695-61.21 73.306-61.21 15.766 0 30.426 1.8157 46.183 5.1228 0-32.6-7.695-40.671-46.555-40.671-10.864 0-21.736.95539-31.809 2.81-26.358 4.8072-29.254-14.145-29.254-14.145l-3.8086-16.882c10.142-2.6673 22.622-5.2439 36.054-7.1071 12.36-1.7033 25.528-2.7884 38.363-2.7884 55.335 0 80.621 16.851 80.621 72.567v93.953zm-43.615-19.315v-37.628c-10.263-2.2048-23.461-3.2985-37.01-3.2985-25.662 0-34.84 2.9397-34.84 26.751 0 25.286 6.9645 29.328 34.468 29.328 9.541 0 19.302-1.3531 28-3.4887 9.6404-2.2826 9.381-11.664 9.381-11.664z"/>
      <path d="m1057.3 355.01s.01 16.484-19.017 22.035c-20.816 6.0739-45.63 8.6115-65.282 8.6115-58.997 0-78.788-13.548-78.788-62.295 0-52.784 29.669-61.21 73.289-61.21 15.766 0 30.43 1.8157 46.183 5.1228 0-32.6-7.6863-40.671-46.546-40.671-10.855 0-21.723.95539-31.818 2.81-26.358 4.8072-29.237-14.145-29.237-14.145l-3.8172-16.882c10.107-2.6673 22.605-5.2439 36.054-7.1071 12.351-1.7033 25.519-2.7884 38.354-2.7884 55.335 0 80.621 16.851 80.621 72.567v93.953zm-43.615-19.315v-37.628c-10.263-2.2048-23.457-3.2985-37.01-3.2985-25.662 0-34.827 2.9397-34.827 26.751 0 25.286 6.9601 29.328 34.45 29.328 9.554 0 19.315-1.3531 28.005-3.4887 9.6448-2.2826 9.381-11.664 9.381-11.664z"/>
   </g>
</svg>
