<?xml version="1.0" encoding="UTF-8" standalone="no"?>
<svg
   width="486.82324"
   height="68.772758"
   viewBox="0 0 486.82324 68.772758"
   fill="none"
   version="1.1"
   id="svg28"
   xml:space="preserve"
   xmlns="http://www.w3.org/2000/svg"
   xmlns:svg="http://www.w3.org/2000/svg"><path
     d="m 81.519245,18.894393 c 0,-0.278 0.185,-0.4633 0.463,-0.4633 h 5.498 c 0.371,0 0.618,0.1236 0.742,0.4633 l 7.969,17.9769 h 0.185 l 7.814995,-17.9769 c 0.123,-0.3089 0.37,-0.4633 0.741,-0.4633 h 5.406 c 0.278,0 0.463,0.1853 0.463,0.4633 v 30.5792 c 0,0.2781 -0.185,0.4634 -0.463,0.4634 h -5.251 c -0.278,0 -0.464,-0.1853 -0.464,-0.4634 v -17.7295 h -0.185 l -5.837995,13.2817 c -0.185,0.4324 -0.463,0.6178 -0.865,0.6178 h -3.181 c -0.402,0 -0.68,-0.1854 -0.865,-0.6178 l -5.838,-13.2817 h -0.185 v 17.7295 c 0,0.2781 -0.186,0.4634 -0.464,0.4634 h -5.22 c -0.278,0 -0.463,-0.1853 -0.463,-0.4634 z"
     fill="#192e45"
     id="path5" /><path
     d="m 117.65824,38.353893 v -19.4595 c 0,-0.278 0.185,-0.4633 0.463,-0.4633 h 5.869 c 0.278,0 0.463,0.1853 0.463,0.4633 v 19.6449 c 0,3.7373 2.101,5.8687 5.282,5.8687 3.151,0 5.22,-2.1314 5.22,-5.8687 v -19.6449 c 0,-0.278 0.185,-0.4633 0.463,-0.4633 h 5.869 c 0.278,0 0.464,0.1853 0.464,0.4633 v 19.4595 c 0,7.8148 -5.004,12.0772 -12.047,12.0772 -7.042,0 -12.046,-4.2624 -12.046,-12.0772 z"
     fill="#192e45"
     id="path6" /><path
     d="m 149.07124,18.431093 c -0.278,0 -0.463,0.1853 -0.463,0.4633 v 30.5485 c 0,0.2777 0.185,0.4631 0.463,0.4631 h 20.51 c 0.278,0 0.463,-0.1854 0.463,-0.4631 v -5.1276 c 0,-0.278 -0.185,-0.4634 -0.463,-0.4634 h -13.9 c -0.185,0 -0.278,-0.0927 -0.278,-0.2777 v -24.6798 c 0,-0.278 -0.185,-0.4633 -0.463,-0.4633 z"
     fill="#192e45"
     id="path7" /><path
     d="m 175.01724,18.894393 c 0,-0.278 0.185,-0.4633 0.463,-0.4633 h 5.869 c 0.278,0 0.463,0.1853 0.463,0.4633 v 24.6798 c 0,0.185 0.093,0.2777 0.278,0.2777 h 13.9 c 0.278,0 0.463,0.1854 0.463,0.4634 v 5.1276 c 0,0.2777 -0.185,0.4631 -0.463,0.4631 h -20.51 c -0.278,0 -0.463,-0.1854 -0.463,-0.4631 z"
     fill="#192e45"
     id="path8" /><path
     d="m 205.59624,49.442893 c 0.093,0.2777 0.278,0.4631 0.587,0.4631 h 5.344 c 0.278,0 0.463,-0.1854 0.555,-0.4631 l 10.008,-30.5176 c 0.093,-0.3089 -0.093,-0.4942 -0.371,-0.4942 h -5.961 c -0.309,0 -0.494,0.1544 -0.587,0.4633 l -6.116,20.6641 h -0.123 l -6.301,-20.6641 c -0.093,-0.3397 -0.309,-0.4633 -0.618,-0.4633 h -6.023 c -0.309,0 -0.494,0.1544 -0.402,0.4942 z"
     fill="#192e45"
     id="path9" /><path
     fill-rule="evenodd"
     clip-rule="evenodd"
     d="m 233.21024,18.894393 c 0.092,-0.278 0.278,-0.4633 0.617,-0.4633 h 5.838 c 0.309,0 0.495,0.1853 0.587,0.4633 l 10.656,30.5792 c 0.093,0.2781 0,0.4634 -0.309,0.4634 h -6.023 c -0.308,0 -0.525,-0.1543 -0.617,-0.4634 l -1.792,-5.498 h -11.027 l -1.76,5.498 c -0.093,0.3091 -0.278,0.4634 -0.618,0.4634 h -6.054 c -0.309,0 -0.402,-0.1853 -0.309,-0.4634 z m 7.073,19.2742 -3.552,-11.027 h -0.124 l -3.552,11.027 z"
     fill="#192e45"
     id="path10" /><path
     fill-rule="evenodd"
     clip-rule="evenodd"
     d="m 255.94324,18.431093 c -0.278,0 -0.463,0.1853 -0.463,0.4633 v 30.5175 c 0,0.2781 0.185,0.4634 0.463,0.4634 h 11.707 c 5.498,0 9.359,-2.3477 10.872,-7.0736 0.556,-1.7606 0.834,-3.5209 0.834,-8.6485 0,-5.1273 -0.278,-6.8879 -0.834,-8.6488 -1.513,-4.7258 -5.374,-7.0733 -10.872,-7.0733 z m 10.193,25.4208 h -3.552 c -0.185,0 -0.278,-0.0927 -0.278,-0.247 v -18.8109 c 0,-0.1853 0.093,-0.278 0.278,-0.278 h 3.552 c 3.151,0 5.066,0.9267 5.838,3.4597 0.34,0.9265 0.525,2.1311 0.525,6.2085 0,4.077 -0.216,5.2816 -0.525,6.2084 -0.803,2.5328 -2.687,3.4593 -5.838,3.4593 z"
     fill="#192e45"
     id="path11" /><path
     fill-rule="evenodd"
     clip-rule="evenodd"
     d="m 352.33224,48.454593 c 2.008,1.3177 4.298,1.9765 6.87,1.9765 2.605,0 4.895,-0.6588 6.87,-1.9765 1.978,-1.3176 3.529,-3.1844 4.659,-5.5999 1.13,-2.4156 1.694,-5.2706 1.694,-8.5647 0,-3.2941 -0.564,-6.1176 -1.694,-8.4707 -1.13,-2.3843 -2.681,-4.2039 -4.659,-5.4588 -1.975,-1.2863 -4.265,-1.9294 -6.87,-1.9294 -2.572,0 -4.862,0.6431 -6.87,1.9294 -1.978,1.2549 -3.529,3.0745 -4.659,5.4588 -1.097,2.3531 -1.648,5.1766 -1.648,8.4707 0,3.2941 0.551,6.1491 1.648,8.5647 1.13,2.4155 2.681,4.2823 4.659,5.5999 z m 11.669,-3.0588 c -1.349,1.0353 -2.947,1.553 -4.799,1.553 -1.82,0 -3.42,-0.5177 -4.799,-1.553 -1.382,-1.0353 -2.449,-2.4941 -3.201,-4.3764 -0.752,-1.9138 -1.13,-4.1567 -1.13,-6.7294 0,-2.5412 0.378,-4.7373 1.13,-6.5882 0.752,-1.8512 1.819,-3.2786 3.201,-4.2825 1.379,-1.0353 2.979,-1.5529 4.799,-1.5529 1.852,0 3.45,0.5176 4.799,1.5529 1.381,1.0039 2.449,2.4313 3.201,4.2825 0.752,1.8509 1.13,4.047 1.13,6.5882 0,2.5727 -0.378,4.8156 -1.13,6.7294 -0.752,1.8823 -1.82,3.3411 -3.201,4.3764 z"
     fill="#192e45"
     id="path12" /><path
     fill-rule="evenodd"
     clip-rule="evenodd"
     d="m 293.35624,49.866093 v -30.8705 h 9.177 c 2.07,0 3.906,0.2509 5.504,0.7529 1.601,0.502 2.84,1.3176 3.719,2.447 0.911,1.0981 1.365,2.5412 1.365,4.3294 0,1.6002 -0.391,3.0119 -1.177,4.2355 -0.752,1.192 -1.865,2.0235 -3.34,2.4941 v 0.1882 c 1.945,0.345 3.483,1.1294 4.61,2.3529 1.13,1.1921 1.696,2.8235 1.696,4.8941 0,2.0706 -0.503,3.7803 -1.507,5.1294 -0.971,1.3491 -2.337,2.3685 -4.093,3.0588 -1.757,0.6588 -3.797,0.9882 -6.118,0.9882 z m 3.906,-17.741 h 4.565 c 2.635,0 4.533,-0.455 5.693,-1.3647 1.16,-0.9097 1.743,-2.1492 1.743,-3.7178 0,-1.8196 -0.613,-3.0902 -1.836,-3.8118 -1.224,-0.7529 -3.028,-1.1294 -5.412,-1.1294 h -4.753 z m 0,14.6352 h 5.365 c 2.666,0 4.737,-0.4862 6.212,-1.4588 1.475,-1.0038 2.211,-2.5412 2.211,-4.6118 0,-1.9138 -0.723,-3.3097 -2.164,-4.1882 -1.442,-0.9097 -3.53,-1.3647 -6.259,-1.3647 h -5.365 z"
     fill="#192e45"
     id="path13" /><path
     fill-rule="evenodd"
     clip-rule="evenodd"
     d="m 321.02124,49.866393 v -30.8706 h 9.647 c 2.101,0 3.97,0.2823 5.601,0.8471 1.63,0.5333 2.9,1.4431 3.811,2.7293 0.941,1.255 1.412,2.9491 1.412,5.0825 0,2.0706 -0.471,3.7803 -1.412,5.1294 -0.911,1.3491 -2.181,2.3685 -3.811,3.0588 -0.545,0.2203 -1.117,0.4038 -1.716,0.5505 l 7.834,13.473 h -4.425 l -7.429,-13.0352 h -5.604 v 13.0352 z m 3.908,-16.2352 h 5.176 c 2.416,0 4.265,-0.4862 5.551,-1.4588 1.286,-1.0038 1.929,-2.5097 1.929,-4.5177 0,-2.008 -0.643,-3.4197 -1.929,-4.2354 -1.286,-0.8471 -3.135,-1.2706 -5.551,-1.2706 h -5.176 z"
     fill="#192e45"
     id="path14" /><path
     d="m 382.03524,49.866393 -6.399,-30.8706 h 4.185 l 3.155,16.8001 c 0.315,1.6626 0.61,3.3256 0.895,4.9882 0.282,1.6626 0.547,3.3726 0.799,5.1294 h 0.189 c 0.314,-1.7568 0.643,-3.4668 0.987,-5.1294 0.189,-0.8313 0.377,-1.6627 0.565,-2.4941 0.188,-0.8314 0.376,-1.6628 0.565,-2.4941 l 4.189,-16.8001 h 3.95 l 4.05,16.8001 c 0.375,1.6314 0.752,3.2941 1.127,4.9882 0.378,1.6626 0.739,3.3726 1.084,5.1294 h 0.188 c 0.252,-1.7568 0.517,-3.4668 0.799,-5.1294 0.141,-0.8313 0.283,-1.6627 0.424,-2.4941 0.142,-0.8314 0.284,-1.6628 0.424,-2.4941 l 3.248,-16.8001 h 4 l -6.449,30.8706 h -5.034 l -4.424,-18.5411 c -0.126,-0.5811 -0.251,-1.1622 -0.377,-1.7432 -0.125,-0.5797 -0.249,-1.1594 -0.375,-1.7391 -0.219,-1.1923 -0.441,-2.4472 -0.66,-3.7649 h -0.189 c -0.189,1.3177 -0.407,2.5726 -0.659,3.7649 -0.219,1.1609 -0.454,2.3214 -0.706,3.4823 l -4.517,18.5411 z"
     fill="#192e45"
     id="path15" /><path
     d="m 418.04824,49.207593 c 1.82,0.8155 3.828,1.2235 6.022,1.2235 2.167,0 4.033,-0.3921 5.601,-1.1765 1.6,-0.7844 2.806,-1.8353 3.625,-3.1529 0.845,-1.3491 1.269,-2.8391 1.269,-4.4706 0,-1.5058 -0.281,-2.7764 -0.848,-3.8117 -0.534,-1.0353 -1.286,-1.8979 -2.257,-2.5882 -0.941,-0.6903 -2.025,-1.3021 -3.248,-1.8353 l -4.377,-1.8824 c -0.816,-0.3764 -1.631,-0.7685 -2.446,-1.1764 -0.786,-0.408 -1.428,-0.9256 -1.929,-1.553 -0.504,-0.6273 -0.752,-1.4274 -0.752,-2.4001 0,-1.3804 0.517,-2.4784 1.551,-3.2941 1.067,-0.8157 2.462,-1.2235 4.189,-1.2235 1.378,0 2.651,0.2667 3.811,0.8 1.16,0.5019 2.227,1.1764 3.201,2.0235 l 2.118,-2.5412 c -1.067,-1.098 -2.386,-1.9921 -3.954,-2.6823 -1.567,-0.6902 -3.294,-1.0353 -5.176,-1.0353 -1.883,0 -3.563,0.3608 -5.034,1.0823 -1.445,0.6903 -2.588,1.6628 -3.437,2.9177 -0.815,1.2235 -1.223,2.6196 -1.223,4.1882 0,1.506 0.312,2.7766 0.941,3.8119 0.627,1.0038 1.412,1.8353 2.353,2.4941 0.971,0.6588 1.959,1.208 2.963,1.6471 l 4.424,1.9294 c 0.975,0.4391 1.836,0.8785 2.588,1.3176 0.786,0.4391 1.396,0.9727 1.836,1.6 0.471,0.6273 0.706,1.4744 0.706,2.5412 0,1.5058 -0.563,2.7294 -1.693,3.6705 -1.13,0.9097 -2.714,1.3647 -4.752,1.3647 -1.634,0 -3.218,-0.3294 -4.756,-0.9882 -1.505,-0.6588 -2.807,-1.5685 -3.904,-2.7294 l -2.214,2.5412 c 1.382,1.4117 2.983,2.5411 4.802,3.3882 z"
     fill="#192e45"
     id="path16" /><path
     d="m 440.64324,49.866393 v -30.8706 h 17.789 v 3.2941 h -13.882 v 9.6942 h 11.718 v 3.3412 h -11.718 v 11.1999 h 14.353 v 3.3412 z"
     fill="#192e45"
     id="path17" /><path
     fill-rule="evenodd"
     clip-rule="evenodd"
     d="m 465.46124,18.995793 v 30.8706 h 3.904 v -13.0352 h 5.605 l 7.432,13.0352 h 4.421 l -7.833,-13.4729 c 0.598,-0.1466 1.17,-0.3302 1.716,-0.5506 1.633,-0.6903 2.903,-1.7097 3.814,-3.0588 0.941,-1.3491 1.412,-3.0588 1.412,-5.1294 0,-2.1334 -0.471,-3.8275 -1.412,-5.0825 -0.911,-1.2862 -2.181,-2.196 -3.814,-2.7293 -1.631,-0.5648 -3.497,-0.8471 -5.598,-0.8471 z m 9.081,14.6354 h -5.177 v -11.4825 h 5.177 c 2.415,0 4.268,0.4235 5.554,1.2706 1.286,0.8157 1.929,2.2274 1.929,4.2354 0,2.008 -0.643,3.5139 -1.929,4.5177 -1.286,0.9726 -3.139,1.4588 -5.554,1.4588 z"
     fill="#192e45"
     id="path18" /><defs
     id="defs28"><linearGradient
       id="paint0_linear_173_1350"
       x1="137"
       y1="-2.89062"
       x2="137"
       y2="80"
       gradientUnits="userSpaceOnUse"><stop
         stop-color="#205C9D"
         id="stop18" /><stop
         offset="0.655451"
         stop-color="#05101B"
         id="stop19" /></linearGradient><radialGradient
       id="paint1_radial_173_1350"
       cx="0"
       cy="0"
       r="1"
       gradientUnits="userSpaceOnUse"
       gradientTransform="matrix(0,-38.5937,38.5536,0,137,47.7344)"><stop
         stop-color="#88608C"
         id="stop20" /><stop
         offset="0.692788"
         stop-color="#8F7664"
         id="stop21" /><stop
         offset="1"
         stop-color="#907029"
         id="stop22" /></radialGradient><linearGradient
       id="paint2_linear_173_1350"
       x1="177.255"
       y1="23.2306"
       x2="109.167"
       y2="57.134998"
       gradientUnits="userSpaceOnUse"><stop
         stop-color="#D59C14"
         id="stop23" /><stop
         offset="0.29"
         stop-color="#F8A912"
         id="stop24" /><stop
         offset="1"
         stop-color="#FDDF00"
         id="stop25" /></linearGradient><linearGradient
       id="paint3_linear_173_1350"
       x1="207.41901"
       y1="15.7748"
       x2="104.791"
       y2="60.415699"
       gradientUnits="userSpaceOnUse"><stop
         stop-color="#D59C14"
         id="stop26" /><stop
         offset="0.07"
         stop-color="#F8A912"
         id="stop27" /><stop
         offset="1"
         stop-color="#FDDF00"
         id="stop28" /></linearGradient><clipPath
       id="clip0_173_1350"><rect
         x="97"
         width="80"
         height="80"
         rx="7.8125"
         fill="#ffffff"
         id="rect28"
         y="0" /></clipPath></defs><style
     type="text/css"
     id="style2">
	.st0{fill-rule:evenodd;clip-rule:evenodd;fill:#192E45;}
	.st1{fill-rule:evenodd;clip-rule:evenodd;fill:#D0933A;}
	.st2{fill-rule:evenodd;clip-rule:evenodd;fill:#FFCC86;}
	.st3{fill-rule:evenodd;clip-rule:evenodd;fill:#FDD321;}
	.st4{fill:#FFFFFF;}
	.st5{fill:#1D2A3A;}
</style><g
     id="Logo"
     transform="matrix(0.27225953,0,0,0.27225953,-20.065527,-20.065527)">
	<path
   id="bg"
   class="st0"
   d="m 73.7,200 c 0,69.8 56.6,126.3 126.3,126.3 69.7,0 126.3,-56.5 126.3,-126.3 C 326.3,130.2 269.8,73.7 200,73.7 130.2,73.7 73.7,130.2 73.7,200 Z"
   style="clip-rule:evenodd;fill:#192e45;fill-rule:evenodd" />
	<path
   id="Mullvad_Fur"
   class="st1"
   d="m 90.6,184.9 9.6,-13.4 c 0,0.1 -0.6,19.3 -0.6,19.3 l 2.7,-14.5 c 8,16.2 27.6,38.6 45.5,50.6 1.9,1.3 3.5,2.7 4.6,4.1 2.3,0.9 4.6,1.4 6.9,1.8 1.2,0.2 2.5,0.3 3.7,0.4 1.2,0.1 2.5,0.1 3.7,0.1 1.2,0 2.4,-0.1 3.6,-0.2 1.2,-0.1 2.4,-0.3 3.6,-0.5 1.2,-0.2 2.4,-0.4 3.5,-0.8 1.2,-0.3 2.3,-0.6 3.5,-1 1.1,-0.3 2.3,-0.8 3.4,-1.2 1.1,-0.5 2.2,-0.9 3.3,-1.5 1.1,-0.6 2.2,-1.1 3.2,-1.7 1.1,-0.5 2.1,-1.2 3.2,-1.8 1.1,-0.6 2.1,-1.3 3.2,-1.9 1.1,-0.6 2.1,-1.3 3.1,-1.9 1,-0.7 2.1,-1.3 3.1,-2 1,-0.7 2.1,-1.3 3.2,-2 l 1,-0.6 0.5,0.3 7.2,4.8 -7.3,-1.9 c -0.7,0.8 -1.4,1.6 -2.2,2.4 -0.9,0.9 -1.9,1.8 -2.8,2.7 -1,0.8 -2,1.7 -3.1,2.4 -1.1,0.8 -2.1,1.5 -3.3,2.2 -2.2,1.4 -4.6,2.6 -7.1,3.6 -1.2,0.5 -2.5,1 -3.7,1.4 -1.3,0.4 -2.5,0.8 -3.8,1.1 -1.3,0.3 -2.6,0.6 -3.9,0.8 -1.3,0.2 -2.6,0.3 -3.9,0.5 -2.6,0.1 -5.3,0.1 -7.9,-0.3 -1.3,-0.2 -2.6,-0.4 -3.9,-0.7 -1.3,-0.3 -2.5,-0.7 -3.7,-1.1 -2.1,-0.8 -4.2,-1.8 -6.1,-3 0,0 -6.9,1 -4.1,6.2 2.8,5.2 7,4.7 5,10.8 -1.4,3.3 -3.4,6.5 -5.6,9.5 -4.6,6.2 -11.8,11.7 -11.1,15 32.7,40.3 106.4,34.7 134.4,-1.3 -0.4,-5.2 -8.6,-7.7 -14.3,-20.4 1.6,0.5 4,1.2 4,1.1 0,-0.1 -6.8,-11.1 -7.1,-12.2 l 4.4,0.3 c 0,0 -5.8,-7.2 -6,-7.9 l 5.9,-0.8 c 0,0 -7.4,-8.5 -7.5,-9.2 l 7.5,1.2 -8.2,-9.9 h 3.9 l -4.6,-6.7 c -0.8,-0.3 -1.6,-0.5 -2.4,-0.7 -1,-0.3 -2,-0.6 -3,-0.9 -11.2,-3.5 -21.8,-6.7 -32,-13.1 -14.3,-8.9 -27.1,-19.8 -36.7,-28.3 l -19.3,-9.4 c -18.5,-1.4 -35.9,-0.9 -46.5,1.2 l 6.8,-11.6 -10.4,12.5 c -0.7,-0.2 -0.9,-0.6 -0.9,-0.6 l 0.7,-15.4 -3.3,13.9 c -1,-0.5 -2.2,-0.7 -3.4,-0.7 -4.6,0 -8.3,3.7 -8.3,8.3 0,4.2 3.1,7.7 7.2,8.2 z"
   style="clip-rule:evenodd;fill:#d0933a;fill-rule:evenodd" />
	<path
   id="Mullvad_Nose"
   class="st2"
   d="m 102.2,154.5 c -1,-0.4 -2.2,-0.7 -3.3,-0.7 -4.6,0 -8.3,3.7 -8.3,8.3 0,4 2.9,7.4 6.7,8.2 0.1,0 0.1,0 0.2,0 2.5,-0.8 7.5,-7.5 6.7,-11.7 -0.3,-1.5 -1,-2.9 -2,-4.1 z"
   style="clip-rule:evenodd;fill:#ffcc86;fill-rule:evenodd" />
	<path
   id="Mullvad_Helmet"
   class="st3"
   d="m 175.1,143.8 c -1.5,-4.1 -1.1,-9.4 1,-14.4 3,-6.9 8.7,-11.5 14.1,-11.5 1.1,0 2.1,0.2 3.1,0.6 3.1,-2.8 6.7,-5.1 10.7,-6.7 22.1,-8.8 54.4,6.9 62.7,28.6 4,10.5 2.8,22 -0.6,32.5 -2.8,8.6 -13,21 -9.2,30.4 -1.5,-0.4 -33.1,-10.2 -41.9,-15.8 -14.1,-8.8 -26.8,-19.6 -36.3,-28 l -0.3,-0.3 -32.1,-15.2 c -0.4,-0.2 -0.8,-0.4 -1.1,-0.6 4.6,0 22.1,2.1 29.9,0.4"
   style="clip-rule:evenodd;fill:#fdd321;fill-rule:evenodd" />
	<g
   id="Helmet_Lamp">
		<path
   class="st4"
   d="m 184.6,147.4 c -0.9,0 -1.7,-0.2 -2.3,-0.5 -1.6,-0.7 -2.8,-2 -3.6,-4 -1.4,-3.4 -1,-8.1 0.9,-12.5 2.5,-5.7 7.2,-9.7 11.5,-9.7 0.8,0 1.6,0.2 2.4,0.5 2.1,0.9 3.6,3 4.1,6 0.6,3.2 0.1,6.9 -1.5,10.4 -2.5,5.7 -7.3,9.8 -11.5,9.8 z"
   id="path8-3"
   style="fill:#ffffff" />
		<g
   id="g12">
			<path
   class="st5"
   d="m 191,122.3 c 0.6,0 1.2,0.1 1.8,0.4 1.6,0.7 2.8,2.5 3.2,4.9 0.5,2.9 0.1,6.3 -1.4,9.5 -2.2,5.1 -6.5,8.8 -10.1,8.8 -0.6,0 -1.2,-0.1 -1.7,-0.3 v 0 0 c -1.5,-0.6 -2.3,-2 -2.7,-3.1 -1.2,-3 -0.9,-7.4 0.8,-11.4 2.3,-5.1 6.5,-8.8 10.1,-8.8 m 0,-3 c -4.8,0 -10.1,4.4 -12.9,10.7 -2.1,4.7 -2.4,9.8 -0.9,13.7 0.9,2.3 2.4,3.9 4.3,4.8 0.9,0.4 1.9,0.6 3,0.6 4.8,0 10.1,-4.4 12.8,-10.7 1.7,-3.8 2.2,-7.8 1.6,-11.3 -0.6,-3.5 -2.4,-6 -5,-7.1 -0.8,-0.5 -1.8,-0.7 -2.9,-0.7 z"
   id="path10-6"
   style="fill:#1d2a3a" />
		</g>
	</g>
</g></svg>
