<?xml version="1.0" encoding="UTF-8"?>
<!-- Copyright © 2015 Igalia, S.L. All rights reserved. -->
<svg xmlns:svg="http://www.w3.org/2000/svg" xmlns="http://www.w3.org/2000/svg" xmlns:xlink="http://www.w3.org/1999/xlink" width="484.52" height="172.8" version="1.1" viewBox="0 0 484.52 172.8" style="enable-background:new;">
  <defs>
    <linearGradient id="redGradient" x1="25.133" y1="142.28" x2="147.37" y2="142.28" gradientUnits="userSpaceOnUse">
      <stop stop-color="#ff0800" offset="0"/>
      <stop stop-color="#670164" offset="1"/>
    </linearGradient>
    <linearGradient id="orangeGradient" x1="1765.1" y1="692.72" x2="1887.3" y2="692.72" gradientUnits="userSpaceOnUse" gradientTransform="matrix(0,-1,1,0,-550.666,1912.6035)">
      <stop stop-color="#f8fc83" offset="0"/>
      <stop stop-color="#ff8600" offset="1"/>
    </linearGradient>
    <linearGradient id="blueGradient" x1="1214.6" y1="2432.8" x2="1336.8" y2="2432.8" gradientUnits="userSpaceOnUse" gradientTransform="matrix(-1,0,0,-1,1361.9365,2463.2705)">
      <stop stop-color="#bfe7e5" offset="0"/>
      <stop stop-color="#0b4499" offset="1"/>
    </linearGradient>
    <linearGradient id="greenGradient" x1="-525.38" y1="1882.1" x2="-403.14" y2="1882.1" gradientUnits="userSpaceOnUse" gradientTransform="matrix(0,1,-1,0,1912.6035,550.667)">
      <stop stop-color="#eff711" offset="0"/>
      <stop stop-color="#93c016" offset="1"/>
    </linearGradient>
    <filter id="blendMultiplyFilter" color-interpolation-filters="sRGB">
      <feBlend mode="multiply" in="SourceGraphic" in2="BackgroundImage"/>
    </filter>
  </defs>
  <g id="Logo">
    <g id="Circle">
      <path id="CircleWhiteBackground" fill="#FFF" d="M85.748,0c-23.106,0-41.96,9.2747-54.999,20.156-0.09627,0.07995-0.18557,0.16982-0.28125,0.25-0.3492,0.29395-0.69055,0.57893-1.0312,0.875-0.57649,0.49915-1.165,0.99352-1.7187,1.5-0.57141,0.52373-1.0803,1.0664-1.625,1.5937-0.31831,0.30806-0.65886,0.59629-0.96874,0.90624-0.30809,0.30814-0.60018,0.65213-0.90624,0.96874-0.19368,0.20036-0.40095,0.39002-0.59375,0.59375-0.30826,0.32511-0.63078,0.6343-0.9375,0.96874-0.02529,0.02765-0.03723,0.06604-0.0625,0.09375-0.80827,0.88373-1.6129,1.8024-2.4062,2.75-0.13592,0.16303-0.27102,0.33524-0.40625,0.5-0.6897,0.8366-1.3578,1.6784-2.0312,2.5625-0.68684,0.90163-1.3653,1.8312-2.0312,2.7812-0.08677,0.12463-0.16367,0.2496-0.25,0.375-8.1584,11.763-14.546,27.135-15.376,45.217-0.026331,0.57374-0.04747,1.1396-0.0625,1.7187-0.037994,1.07-0.0625,2.1629-0.0625,3.25,0,21.522,7.9505,39.248,17.812,52.093,0.72213,0.94063,1.4472,1.8624,2.1875,2.75,0.07985,0.0962,0.16991,0.1856,0.25,0.28125,0.35275,0.41924,0.70654,0.81165,1.0625,1.2187,0.43876,0.50371,0.86783,1.0136,1.3125,1.5,0.52512,0.57294,1.0645,1.1098,1.5937,1.6562,0.30598,0.31623,0.59824,0.66068,0.90624,0.96874,0.30816,0.30805,0.65227,0.60007,0.96874,0.90625,0.51603,0.49979,1.0225,1.0036,1.5625,1.5,0.22098,0.2027,0.46286,0.39216,0.6875,0.59375,1.5871,1.4283,3.2495,2.8452,5.0312,4.2187,0.18759,0.1438,0.37293,0.29465,0.5625,0.4375,12.441,9.4325,29.414,17.085,49.812,17.562,0.98996,0.0329,1.995,0.0625,3,0.0625,23.231-0.00087,42.174-9.3812,55.218-20.344,0.0632-0.0528,0.12453-0.10332,0.1875-0.15625,0.90309-0.76324,1.7484-1.5368,2.5937-2.3125,0.0277-0.0253,0.0661-0.0372,0.0937-0.0625,0.54198-0.49858,1.0447-1.0294,1.5625-1.5312,0.31639-0.30599,0.66068-0.59841,0.96875-0.90625,0.31-0.31018,0.59813-0.65015,0.90624-0.96874,0.52748-0.54478,1.07-1.0535,1.5937-1.625,1.2302-1.3457,2.4429-2.8028,3.625-4.2812,10.113-12.587,18.584-30.258,19.094-51.718,0.0329-0.98971,0.0625-1.9953,0.0625-3,0-19.817-6.8487-36.513-15.656-49.093-0.0864-0.12436-0.16321-0.25139-0.25-0.375-1.4395-2.0344-2.9159-3.9386-4.4375-5.75-0.0526-0.06286-0.10358-0.12489-0.15625-0.1875-0.76333-0.90365-1.5368-1.779-2.3125-2.625-0.0253-0.02768-0.0372-0.06613-0.0625-0.09375-0.49852-0.54227-1.0294-1.0444-1.5312-1.5625-0.3064-0.31654-0.59796-0.66051-0.90624-0.96874-0.30807-0.30802-0.65236-0.60009-0.96875-0.90624-0.20139-0.19504-0.38869-0.39916-0.59374-0.59375-0.31613-0.29965-0.61344-0.60878-0.9375-0.90624-0.0376-0.03456-0.0873-0.05921-0.125-0.09375-0.84393-0.77171-1.6971-1.5272-2.5937-2.2812-0.0613-0.0518-0.1259-0.10452-0.1875-0.15625-0.0504-0.04214-0.10568-0.08293-0.15625-0.125-12.27-10.284-29.74-19.091-51.074-20.078-0.50041-0.027601-0.9956-0.04323-1.5-0.0625-0.06247-0.0017993-0.12497,0.0016645-0.1875,0-1.072-0.038713-2.159-0.0625-3.25-0.0625zm0.65625,39.656c9.868,7.2185,18.76,15.101,25.031,21.375,6.3396,6.3396,14.348,15.358,21.656,25.375-7.2963,10.005-15.291,19.011-21.625,25.344-6.3081,6.3065-15.285,14.244-25.219,21.5-9.945-7.25-18.894-15.16-25.2-21.47-6.313-6.31-14.278-15.313-21.562-25.281,7.277-9.916,15.252-18.849,21.562-25.156,6.34-6.34,15.35-14.356,25.344-21.687z"/>
      <g id="CircleColorBottom">
        <path fill="url(#redGradient)" d="m25.133,147.53c20.229,20.221,66.438-15.891,86.329-35.777,9.527,9.531,25.533,25.377,35.91,35.758-13.47,13.46-34.92,25.26-61.6,25.26-26.681,0-47.707-12.31-60.637-25.24z"/>
        <path fill="url(#orangeGradient)" d="m147.37,147.51c20.23-20.227-16.041-66.597-35.928-86.484,9.527-9.531,25.529-25.381,35.904-35.761,13.479,13.477,25.28,34.927,25.28,61.606,0,26.678-12.323,47.704-25.256,60.639z"/>
        <path fill="url(#blueGradient)" d="M147.35,25.265c-20.23-20.23-66.418,16.197-86.302,36.084-9.529-9.528-25.557-25.687-35.934-36.062,13.466-13.469,34.92-25.269,61.601-25.269,26.68,0,47.702,12.314,60.633,25.247z"/>
        <path fill="url(#greenGradient)" d="M25.114,25.288c-20.227,20.225,16.048,66.593,35.934,86.482-9.534,9.53-25.535,25.38-35.915,35.76-13.467-13.47-25.112-34.77-25.112-61.449,0-26.68,12.159-47.865,25.093-60.793z"/>
      </g>
      <g id="CircleColorTop" filter="url(#blendMultiplyFilter)">
        <path fill="url(#redGradient)" d="m147.37,147.51c-20.223,20.229-66.438-15.846-86.324-35.74-9.534,9.531-25.535,25.381-35.915,35.76,13.474,13.469,34.926,25.27,61.608,25.27,26.674-0.001,47.705-12.358,60.631-25.29z"/>
        <path fill="url(#orangeGradient)" d="m147.35,25.265c20.229,20.228-15.998,66.601-35.887,86.487,9.537,9.539,25.533,25.377,35.91,35.758,13.471-13.479,25.272-34.928,25.272-61.603,0-26.679-12.36-47.707-25.29-60.642z"/>
        <path fill="url(#blueGradient)" d="M25.114,25.288c20.229-20.223,66.443,15.847,86.326,35.738,9.53-9.533,25.53-25.381,35.91-35.761-13.47-13.468-34.92-25.265-61.603-25.265-26.681,0-47.699,12.359-60.633,25.288z"/>
        <path fill="url(#greenGradient)" d="M25.133,147.53c-20.229-20.23,16.023-66.299,35.915-86.18-9.532-9.537-25.555-25.684-35.934-36.062-13.471,13.473-25.114,35.082-25.114,61.761,0,26.671,12.204,47.551,25.133,60.481z"/>
      </g>
    </g>
    <g id="Text" fill="#3f3f3f">
      <path d="m233.58,47.875c0,7.476-2.158,8.743-8.992,8.743-6.972,0-9.123-1.268-9.123-8.743,0-6.714,2.151-7.723,9.123-7.723,6.834,0.001,8.992,1.01,8.992,7.723zm-1.27,65.47c0,9.976,4.809,15.219,4.809,15.219s-6.383,5.037-11.303,5.037c-6.464,0-9.215-11.614-9.215-16.417v-50.182h15.709v46.343z"/>
      <path d="m420.96,47.875c0,7.476-2.158,8.743-8.998,8.743-6.969,0-9.121-1.268-9.121-8.743,0-6.714,2.152-7.723,9.121-7.723,6.84,0.001,8.998,1.01,8.998,7.723zm-1.271,65.47c0,9.976,4.807,15.219,4.807,15.219s-6.383,5.037-11.301,5.037c-6.463,0-9.215-11.614-9.215-16.417v-50.182h15.709v46.343z"/>
      <path d="m268.29,133c-17.734,0-27.111-7.348-27.111-33.573,0-26.346,9.755-34.326,31.037-34.326,6.846,0,15.158,0.992,21.822,2.763,6.857,1.823,6.299,7.504,6.299,7.504v51.168c0,25.207-14.059,30.788-34.451,30.788-4.951,0-11.018-0.669-16.115-1.901-6.658-1.607-4.258-11.141-4.258-11.141l0.859-3.428c5.955,1.899,13.301,3.166,19.383,3.166,11.91,0,18.875-3.297,18.875-15.202-3.545,2.15-8.993,4.182-16.34,4.182zm16.339-49.848s0.342-3.207-3.844-4.121c-2.848-0.621-5.912-1.009-8.57-1.009-11.145,0-14.818,2.914-14.818,21.28,0,16.086,3.416,20.144,14.438,20.144,6.965,0,12.795-2.158,12.795-6.081v-30.215z"/>
      <path d="m391.92,49.702v63.666c0,6.205,1.396,10.514,4.945,15.202,0,0-12.107,9.93-16.748,1.921-2.5-4.312-3.904-9.463-3.904-16.49v-73.978h6.482c9.934,0,9.225,9.68,9.225,9.68z"/>
      <path d="m484.52,122.66s0,5.698-6.57,7.616c-7.201,2.099-15.777,2.976-22.564,2.976-20.391,0-27.238-4.682-27.238-21.532,0-18.242,10.264-21.154,25.34-21.154,5.449,0,10.514,0.628,15.961,1.77,0-11.268-2.66-14.056-16.088-14.056-3.758,0-7.518,0.329-11,0.969-9.107,1.662-10.109-4.888-10.109-4.888l-1.313-5.836c3.5-0.924,7.814-1.813,12.459-2.457,4.273-0.587,8.824-0.963,13.26-0.963,19.125,0,27.863,5.826,27.863,25.082v32.473zm-15.072-6.676v-13.006c-3.545-0.762-8.107-1.14-12.791-1.14-8.869,0-12.039,1.016-12.039,9.248,0,8.739,2.406,10.135,11.906,10.135,3.303,0,6.676-0.467,9.68-1.202,3.332-0.792,3.244-4.035,3.244-4.035z"/>
      <path d="m365.44,122.66s0.004,5.698-6.572,7.616c-7.195,2.099-15.773,2.976-22.564,2.976-20.391,0-27.229-4.682-27.229-21.532,0-18.242,10.254-21.154,25.332-21.154,5.447,0,10.514,0.628,15.961,1.77,0-11.268-2.658-14.056-16.088-14.056-3.752,0-7.512,0.329-11,0.969-9.107,1.662-10.105-4.888-10.105-4.888l-1.318-5.836c3.496-0.924,7.814-1.813,12.463-2.457,4.271-0.587,8.822-0.963,13.254-0.963,19.129,0,27.867,5.826,27.867,25.082v32.473zm-15.072-6.676v-13.006c-3.549-0.762-8.107-1.14-12.795-1.14-8.865,0-12.033,1.016-12.033,9.248,0,8.739,2.404,10.135,11.906,10.135,3.303,0,6.676-0.467,9.678-1.202,3.333-0.792,3.244-4.035,3.244-4.035z"/>
    </g>
  </g>
</svg>
